<?xml version="1.0" encoding="UTF-8" standalone="no"?>
<!-- Created with Inkscape (http://www.inkscape.org/) -->

<svg
   xmlns:dc="http://purl.org/dc/elements/1.1/"
   xmlns:cc="http://creativecommons.org/ns#"
   xmlns:rdf="http://www.w3.org/1999/02/22-rdf-syntax-ns#"
   xmlns:svg="http://www.w3.org/2000/svg"
   xmlns="http://www.w3.org/2000/svg"
   xmlns:sodipodi="http://sodipodi.sourceforge.net/DTD/sodipodi-0.dtd"
   xmlns:inkscape="http://www.inkscape.org/namespaces/inkscape"
   width="214.3125mm"
   height="31.75mm"
   viewBox="0 0 214.3125 31.75"
   version="1.1"
   id="svg525"
   inkscape:version="0.92.2 (5c3e80d, 2017-08-06)"
   sodipodi:docname="banner.svg">
  <defs
     id="defs519" />
  <sodipodi:namedview
     id="base"
     pagecolor="#ffffff"
     bordercolor="#666666"
     borderopacity="1.0"
     inkscape:pageopacity="0.0"
     inkscape:pageshadow="2"
     inkscape:zoom="1.4"
     inkscape:cx="94.285726"
     inkscape:cy="-17.857146"
     inkscape:document-units="mm"
     inkscape:current-layer="layer1"
     showgrid="false"
     fit-margin-top="0"
     fit-margin-left="0"
     fit-margin-right="0"
     fit-margin-bottom="0"
     inkscape:window-width="2560"
     inkscape:window-height="1018"
     inkscape:window-x="1912"
     inkscape:window-y="-8"
     inkscape:window-maximized="1" />
  <metadata
     id="metadata522">
    <rdf:RDF>
      <cc:Work
         rdf:about="">
        <dc:format>image/svg+xml</dc:format>
        <dc:type
           rdf:resource="http://purl.org/dc/dcmitype/StillImage" />
        <dc:title></dc:title>
      </cc:Work>
    </rdf:RDF>
  </metadata>
  <g
     inkscape:label="Layer 1"
     inkscape:groupmode="layer"
     id="layer1"
     transform="translate(3.2272345e-6,-112.35863)">
    <path
       id="path15"
       d="M 9.4191668,112.35863 H 21.166667 c 0,4.02167 0,8.04334 0,12.065 -1.217084,1.24354 -2.513542,2.40771 -3.677709,3.70417 0,0.0529 0,0.15875 0,0.21166 1.164167,1.29646 2.460625,2.48709 3.677709,3.73063 0,3.99521 0,8.01687 0,12.03854 H 9.3927088 C 6.2706248,140.98655 3.1220838,137.86446 -3.2272345e-6,134.68946 V 121.75134 C 3.1485418,118.62926 6.2441668,115.45426 9.4191668,112.35863 Z m 1.5345832,2.64584 c -2.7516662,2.77812 -5.5297912,5.55625 -8.3079162,8.30791 0,1.87854 0,3.75708 0,5.63563 0,1.40229 0,2.80458 0,4.20687 2.804583,2.75167 5.55625,5.52979 8.3079162,8.30792 2.513542,0 5.053542,0 7.567083,0 0,-1.66688 0,-3.36021 0,-5.02709 0,-0.92604 0,-1.85208 0,-2.80458 -1.825625,-1.77271 -3.624791,-3.59833 -5.423958,-5.3975 1.799167,-1.79917 3.598333,-3.62479 5.423958,-5.3975 0,-1.40229 0,-2.80458 0,-4.20687 0,-1.21709 0,-2.40771 0,-3.62479 -2.513541,0 -5.027083,0 -7.567083,0 z"
       inkscape:connector-curvature="0"
       style="isolation:isolate;fill:#444444;stroke-width:0.26458332" />
    <path
       id="path17"
       d="m 23.8125,112.35863 h 8.069792 c 1.693333,1.64042 3.307291,3.41313 5.053541,5.00063 0.05292,0 0.15875,0 0.211667,0 1.74625,-1.61396 3.33375,-3.38667 5.08,-5.00063 h 23.071667 c 1.164166,1.71979 2.2225,3.51896 3.466041,5.18584 0.05292,-1.7198 0.02646,-3.46605 0.02646,-5.18584 h 24.659166 c 0.291042,0.10584 0.582084,0.21167 0.873125,0.3175 0.3175,0.18521 0.635,0.34396 0.926042,0.52917 0,-0.21167 0,-0.635 0,-0.84667 h 83.211459 c 0.47625,0.42334 0.87312,1.03188 1.42875,1.29646 0.60854,-0.23812 1.00541,-0.89958 1.50812,-1.29646 H 190.5 c 0,5.87375 0,11.7475 0,17.62125 -1.77271,1.71979 -3.51896,3.51896 -5.29167,5.26521 0,2.93687 0,5.90021 0,8.86354 H 174.625 c 0,-2.96333 0,-5.92667 0,-8.86354 -0.87313,-0.87313 -1.74625,-1.77271 -2.64583,-2.61938 0,3.83646 0,7.64646 0,11.48292 h -8.0698 c -0.84666,-0.82021 -1.64041,-1.69333 -2.51354,-2.48708 0,0.82021 0,1.66687 0,2.48708 H 150.8125 c 0,-5.29167 0,-10.58333 0,-15.875 -0.87313,0 -1.77271,0 -2.64583,0 0,5.29167 0,10.58333 0,15.875 h -10.58334 c 0,-5.29167 0,-10.58333 0,-15.875 -0.87312,0 -1.77271,0 -2.64583,0 0,5.29167 0,10.58333 0,15.875 h -21.16667 c 0,-0.21167 0,-0.635 0,-0.84667 -0.29104,0.18521 -0.60854,0.34396 -0.92604,0.52917 -0.29104,0.10583 -0.60854,0.21167 -0.92604,0.3175 H 99.695 c -0.3175,-0.10583 -0.608542,-0.21167 -0.899583,-0.3175 -0.820209,-0.42333 -1.402292,-1.16417 -2.116667,-1.77271 -0.05292,0 -0.15875,0 -0.211667,0 -0.687916,0.60854 -1.296458,1.32292 -2.116666,1.79917 -0.3175,0.0794 -0.635,0.18521 -0.9525,0.29104 h -24.60625 c 0,-0.47625 0,-0.9525 -0.02646,-1.42875 -0.899583,-1.21708 -1.666875,-2.51354 -2.619375,-3.70417 0,1.7198 0,3.43959 0,5.13292 H 39.6875 c 0,-2.93687 0,-5.90021 0,-8.83708 -0.873125,0.79375 -1.640417,1.69333 -2.54,2.46062 -0.05292,0 -0.15875,0 -0.211667,0 -0.899583,-0.76729 -1.666875,-1.66687 -2.54,-2.46062 0,2.93687 0,5.90021 0,8.83708 H 23.8125 c 0,-10.58333 0,-21.16667 0,-31.75 z m 2.645833,2.64584 c 0,7.06437 0,14.10229 0,21.16666 0,1.77271 0,3.51896 0,5.29167 1.772709,0 3.518959,0 5.291667,0 0,-1.77271 0,-3.51896 0,-5.29167 0,-2.59292 0,-5.18583 0,-7.77875 1.799167,1.69333 3.466042,3.54542 5.291667,5.18583 1.852083,-1.64041 3.4925,-3.4925 5.291666,-5.18583 0,2.59292 0,5.18583 0,7.77875 0,1.77271 0,3.51896 0,5.29167 1.772709,0 3.518959,0 5.291667,0 0,-1.77271 0,-3.51896 0,-5.29167 0,-7.06437 0,-14.10229 0,-21.16666 -1.296458,0 -2.566458,0 -3.862917,0 -1.878541,1.93145 -3.836458,3.83645 -5.715,5.76791 -0.343958,0.34396 -0.687916,0.66146 -1.084791,0.92604 -2.169584,-2.27541 -4.471459,-4.445 -6.641042,-6.69395 -1.296458,0 -2.566458,0 -3.862917,0 z m 23.8125,0 c 0,7.06437 0,14.10229 0,21.16666 0,1.77271 0,3.51896 0,5.29167 1.772709,0 3.518959,0 5.291667,0 0,-1.77271 0,-3.51896 0,-5.29167 0,-7.06437 0,-14.10229 0,-21.16666 -1.772708,0 -3.518958,0 -5.291667,0 z m 7.9375,0 c 0,7.06437 0,14.10229 0,21.16666 0,1.77271 0,3.51896 0,5.29167 1.772709,0 3.518959,0 5.291667,0 0,-1.77271 0,-3.51896 0,-5.29167 0,-2.09021 0,-4.15396 0,-6.24417 1.11125,1.53459 2.2225,3.04271 3.122083,4.68313 1.693334,2.19604 2.936875,4.68312 4.630209,6.85271 1.825625,0 3.65125,0 5.476875,0 0,-1.77271 0,-3.51896 0,-5.29167 0,-7.06437 0,-14.10229 0,-21.16666 -1.772709,0 -3.518959,0 -5.291667,0 -0.02646,3.91583 0.02646,7.85812 -0.02646,11.77395 -0.211665,-0.26458 -7.567082,-11.56229 -7.75229,-11.77395 -1.799167,0 -3.624792,0 -5.450417,0 z m 21.166667,0 c 0,7.06437 0,14.10229 0,21.16666 0,1.77271 0,3.51896 0,5.29167 3.624792,0 7.223125,0 10.847917,0 0.873125,0.0265 1.693333,-0.34396 2.54,-0.60854 1.640416,-0.82021 2.566458,-2.64584 2.487083,-4.41855 0,-1.29645 0.05292,-2.59291 -0.07937,-3.88937 0.132292,-0.44979 0.07937,-0.9525 0.07937,-1.40229 0,-3.88938 0,-7.75229 0,-11.64167 0.02646,-0.3175 -0.05292,-0.635 -0.211667,-0.9525 -0.02646,-0.13229 -0.07937,-0.37041 -0.105833,-0.50271 -0.132292,-0.26458 -0.264583,-0.52916 -0.370417,-0.76729 -0.264583,-0.44979 -0.608541,-0.82021 -0.978958,-1.13771 -0.3175,-0.15875 -0.582083,-0.37041 -0.846667,-0.58208 -0.132291,0 -0.396875,-0.0529 -0.529166,-0.0794 -0.238125,-0.10584 -0.529167,-0.21167 -0.79375,-0.3175 -0.555625,-0.21167 -1.164167,-0.15875 -1.74625,-0.15875 -3.413125,0 -6.852709,0 -10.292292,0 z m 18.520833,0 c 0,5.66208 0,11.2977 0,16.95979 0.02646,0.13229 0.07937,0.42333 0.07937,0.55562 -0.132291,1.29646 -0.07937,2.61938 -0.07937,3.91583 -0.07937,1.79917 0.873125,3.59834 2.487087,4.41855 0.84666,0.26458 1.66687,0.635 2.54,0.60854 1.95791,0 3.88937,0 5.82083,0 0.87312,0.0265 1.69333,-0.34396 2.54,-0.60854 1.61396,-0.79375 2.56646,-2.61938 2.48708,-4.41855 0,-1.29645 0.0529,-2.61937 -0.0794,-3.91583 0.13229,-0.44979 0.0794,-0.92604 0.0794,-1.37583 0,-5.37104 0,-10.76854 0,-16.13958 -1.77271,0 -3.51896,0 -5.29166,0 0,5.42395 0.0264,10.84791 -0.0265,16.27187 -0.0794,0.13229 -0.23813,0.42333 -0.3175,0.58208 -0.15875,0.0794 -0.44979,0.23813 -0.58209,0.3175 -1.34937,-0.0529 -2.77812,0.29104 -4.07458,-0.26458 -0.13229,-0.42333 -0.3175,-0.82021 -0.29104,-1.27 0,-5.21229 0,-10.42458 0,-15.63687 -1.77271,0 -3.518958,0 -5.291667,0 z m 18.520837,0 c 0,4.41854 0,8.81062 0,13.22916 0,0.87313 0,1.77271 0,2.64583 0,1.77271 0,3.51896 0,5.29167 0,1.77271 0,3.51896 0,5.29167 5.29166,0 10.58333,0 15.875,0 0,-1.77271 0,-3.51896 0,-5.29167 0,-4.41854 0,-8.81062 0,-13.22917 0,-0.87312 0,-1.7727 0,-2.64583 0,-1.77271 0,-3.51896 0,-5.29166 -5.29167,0 -10.58334,0 -15.875,0 z m 18.52083,0 c 0,1.7727 0,3.51895 0,5.29166 0,1.77271 0,3.51896 0,5.29167 1.77271,0 3.51896,0 5.29167,0 0,3.51896 0,7.06437 0,10.58333 0,1.77271 0,3.51896 0,5.29167 1.7727,0 3.51895,0 5.29166,0 0,-1.77271 0,-3.51896 0,-5.29167 0,-3.51896 0,-7.06437 0,-10.58333 1.77271,0 3.51896,0 5.29167,0 0,-1.77271 0,-3.51896 0,-5.29167 0,-1.77271 0,-3.51896 0,-5.29166 -5.29167,0 -10.58333,0 -15.875,0 z m 18.52083,0 c 0,7.06437 0,14.10229 0,21.16666 0,1.77271 0,3.51896 0,5.29167 1.77271,0 3.51896,0 5.29167,0 0,-1.77271 0,-3.51896 0,-5.29167 0,-0.47625 0,-0.9525 0,-1.42875 2.24896,2.2225 4.49792,4.445 6.72042,6.72042 1.29645,0 2.56645,0 3.86291,0 0,-1.77271 0,-3.51896 0,-5.29167 0,-0.9525 0,-1.87854 0,-2.83104 0,-1.69333 0,-3.41313 0,-5.10646 0,-4.41854 0,-8.81062 0,-13.22916 -5.29166,0 -10.58333,0 -15.875,0 z m 18.52084,0 c 0,2.7252 -0.0265,5.42395 0.0264,8.1227 -0.0264,1.77271 -0.0264,3.51896 -0.0264,5.26521 1.7727,1.71979 3.46604,3.51896 5.29166,5.21229 0,0.84667 0,1.71979 0,2.56646 0,1.77271 0,3.51896 0,5.29167 1.77271,0 3.51896,0 5.29167,0 0,-1.77271 0,-3.51896 0,-5.29167 0,-0.84667 0,-1.71979 0,-2.56646 1.82562,-1.69333 3.4925,-3.4925 5.29167,-5.21229 0,-1.74625 0,-3.51896 0,-5.26521 0.0264,-2.69875 0,-5.42395 0,-8.1227 -1.77271,0 -3.51896,0 -5.29167,0 0,1.82562 0,3.62479 0,5.45041 -0.92604,0.82021 -1.71979,1.82563 -2.72521,2.56646 -0.82021,-0.87312 -1.69333,-1.71979 -2.56646,-2.56646 0,-1.82562 0,-3.62479 0,-5.45041 -1.77271,0 -3.51896,0 -5.29166,0 z"
       inkscape:connector-curvature="0"
       style="isolation:isolate;fill:#444444;stroke-width:0.26458332" />
    <path
       id="path21"
       d="m 193.14583,112.35863 h 11.77396 c 3.12208,3.12209 6.29708,6.24417 9.39271,9.41917 v 12.96458 c -3.14854,3.09563 -6.24417,6.27063 -9.41917,9.36625 h -11.7475 c 0,-4.02167 0,-8.04333 0,-12.03854 1.19063,-1.19063 2.38125,-2.35479 3.54542,-3.54542 0.3175,-0.23812 0.0529,-0.55562 -0.15875,-0.74083 -1.11125,-1.13771 -2.24896,-2.24896 -3.38667,-3.36021 0,-4.02166 0,-8.04333 0,-12.065 z m 2.64584,2.64584 c 0,1.21708 0,2.4077 0,3.62479 0,1.40229 0,2.80458 0,4.20687 1.82562,1.77271 3.62479,3.59833 5.42395,5.3975 -1.79916,1.79917 -3.59833,3.62479 -5.42395,5.3975 0,1.29646 0,2.59292 0,3.86292 0,1.32291 0,2.64583 0,3.96875 2.51354,0 5.05354,0 7.56708,0 2.75167,-2.80459 5.52979,-5.55625 8.30792,-8.30792 0,-1.40229 0,-2.80458 0,-4.20687 0,-1.87855 0,-3.75709 0,-5.63563 -2.77813,-2.75166 -5.55625,-5.52979 -8.30792,-8.30791 -2.54,0 -5.05354,0 -7.56708,0 z"
       inkscape:connector-curvature="0"
       style="isolation:isolate;fill:#444444;stroke-width:0.26458332" />
    <path
       id="path23"
       d="m 84.666667,124.26488 c 1.693333,0.0794 3.413125,-0.21167 5.053541,0.26458 0.05292,0.1323 0.105834,0.39688 0.15875,0.50271 0.185209,1.24354 0.02646,2.48709 0.07937,3.73063 -0.05292,1.03187 0.211667,2.14312 -0.3175,3.09562 -0.15875,0.0794 -0.449791,0.23813 -0.608541,0.3175 -1.455209,0.0529 -2.910417,0.0265 -4.365625,0.0265 0,-2.64583 0,-5.29166 0,-7.9375 z"
       inkscape:connector-curvature="0"
       style="isolation:isolate;fill:#444444;stroke-width:0.26458332" />
    <path
       id="path25"
       d="m 10.95375,115.00447 c 2.54,0 5.053542,0 7.567083,0 0,1.21708 0,2.4077 0,3.62479 -2.54,2.46062 -5.027083,4.97416 -7.514166,7.4877 0.687916,0.71438 1.375833,1.42875 2.090208,2.11667 1.799167,1.79917 3.598333,3.62479 5.423958,5.3975 0,0.9525 0,1.87854 0,2.80458 -2.778125,0 -5.582708,0.0265 -8.360833,0 -2.4870832,-2.51354 -4.9741662,-5.02708 -7.5141662,-7.4877 0,-1.87855 0,-3.75709 0,-5.63563 2.778125,-2.75166 5.55625,-5.52979 8.3079162,-8.30791 z"
       inkscape:connector-curvature="0"
       style="isolation:isolate;fill:#ffd37f;stroke-width:0.26458332" />
    <path
       id="path37"
       d="m 195.79167,115.00447 c 2.51354,0 5.02708,0 7.56708,0 2.75167,2.77812 5.52979,5.55625 8.30792,8.30791 0,1.87854 0,3.75708 0,5.63563 -2.88396,2.80458 -5.715,5.68854 -8.5725,8.54604 -2.43417,0.0265 -4.86834,0 -7.3025,0 0,-1.27 0,-2.56646 0,-3.86292 1.82562,-1.77271 3.62479,-3.59833 5.42395,-5.3975 0.68792,-0.68792 1.4023,-1.40229 2.09021,-2.11667 -2.48708,-2.51354 -4.97416,-5.02708 -7.51416,-7.4877 0,-1.21709 0,-2.40771 0,-3.62479 z"
       inkscape:connector-curvature="0"
       style="isolation:isolate;fill:#ffd37f;stroke-width:0.26458332" />
    <path
       id="path39"
       d="m 26.458333,115.00447 c 1.296459,0 2.566459,0 3.862917,0 2.169583,2.24895 4.471458,4.41854 6.641042,6.69395 0.396875,-0.26458 0.740833,-0.58208 1.084791,-0.92604 1.878542,-1.93146 3.836459,-3.83646 5.715,-5.76791 1.296459,0 2.566459,0 3.862917,0 0,7.06437 0,14.10229 0,21.16666 -1.772708,0 -3.518958,0 -5.291667,0 0,-2.59292 0,-5.18583 0,-7.77875 0,-1.42875 0,-2.83104 0,-4.23333 -1.799166,1.71979 -3.4925,3.51896 -5.291666,5.23875 -1.772709,-1.71979 -3.518959,-3.51896 -5.291667,-5.23875 0,1.40229 0,2.80458 0,4.23333 0,2.59292 0,5.18583 0,7.77875 -1.772708,0 -3.518958,0 -5.291667,0 0,-7.06437 0,-14.10229 0,-21.16666 z"
       inkscape:connector-curvature="0"
       style="isolation:isolate;fill:#ffffff;stroke-width:0.26458332" />
    <path
       id="path41"
       d="m 50.270833,115.00447 c 1.772709,0 3.518959,0 5.291667,0 0,7.06437 0,14.10229 0,21.16666 -1.772708,0 -3.518958,0 -5.291667,0 0,-7.06437 0,-14.10229 0,-21.16666 z"
       inkscape:connector-curvature="0"
       style="isolation:isolate;fill:#ffffff;stroke-width:0.26458332" />
    <path
       id="path43"
       d="m 58.208333,115.00447 c 1.825625,0 3.65125,0 5.450417,0 0.185208,0.21166 7.540625,11.50937 7.752292,11.77395 0.05292,-3.91583 0,-7.85812 0.02646,-11.77395 1.772708,0 3.518958,0 5.291667,0 0,7.06437 0,14.10229 0,21.16666 -1.825625,0 -3.65125,0 -5.476875,0 -2.645836,-3.88937 -5.159377,-7.85812 -7.725836,-11.80042 -0.05292,1.85209 -0.02646,3.70417 -0.02646,5.55625 0,2.09021 0,4.15396 0,6.24417 -1.772708,0 -3.518958,0 -5.291667,0 0,-7.06437 0,-14.10229 0,-21.16666 z"
       inkscape:connector-curvature="0"
       style="isolation:isolate;fill:#ffffff;stroke-width:0.26458332" />
    <path
       id="path45"
       d="m 79.375,115.00447 c 3.439583,0 6.879167,0 10.292292,0 0.582083,0 1.190625,-0.0529 1.74625,0.15875 0.264583,0.10583 0.555625,0.21166 0.79375,0.3175 0.132291,0.0264 0.396875,0.0794 0.529166,0.0794 0.264584,0.21167 0.529167,0.42333 0.846667,0.58208 0.370417,0.3175 0.714375,0.68792 0.978958,1.13771 0.105834,0.23813 0.238125,0.50271 0.370417,0.76729 0.02646,0.1323 0.07937,0.37042 0.105833,0.50271 0.15875,0.3175 0.238125,0.635 0.211667,0.9525 0,3.88938 0,7.75229 0,11.64167 0,0.44979 0.05292,0.9525 -0.07937,1.40229 -0.370417,0.89958 -0.767292,1.87854 -1.5875,2.48708 -1.058333,0.71438 -2.328333,1.16417 -3.624792,1.13771 -3.518958,0 -7.064375,0 -10.583333,0 0,-7.06437 0,-14.10229 0,-21.16666 z m 5.291667,3.96875 c 0,1.7727 0,3.51895 0,5.29166 0,2.64583 0,5.29167 0,7.9375 1.455208,0 2.910416,0.0265 4.365625,-0.0265 0.15875,-0.0794 0.449791,-0.23812 0.608541,-0.3175 0.529167,-0.9525 0.264584,-2.06375 0.3175,-3.09562 -0.05292,-1.24355 0.105834,-2.48709 -0.07937,-3.73063 0.158745,-1.56104 0.07937,-3.175 0.07937,-4.73604 0.02646,-0.60854 -0.423333,-1.05833 -0.899583,-1.32291 -1.455208,0.0264 -2.936875,0 -4.392083,0 z"
       inkscape:connector-curvature="0"
       style="isolation:isolate;fill:#ffffff;stroke-width:0.26458332" />
    <path
       id="path47"
       d="m 97.895833,115.00447 c 1.772709,0 3.518957,0 5.291667,0 0,5.21229 0,10.42458 0,15.63687 -0.0265,0.44979 0.15875,0.84667 0.29104,1.27 1.29646,0.55562 2.72521,0.21167 4.07458,0.26458 0.1323,-0.0794 0.42334,-0.23812 0.58209,-0.3175 0.0794,-0.15875 0.23812,-0.44979 0.3175,-0.58208 0.0529,-5.42396 0.0265,-10.84792 0.0265,-16.27187 1.7727,0 3.51895,0 5.29166,0 0,5.37104 0,10.76854 0,16.13958 0,0.44979 0.0529,0.92604 -0.0794,1.37583 -0.39688,1.11125 -0.97896,2.27542 -2.09021,2.83104 -2.06375,1.27 -4.55083,0.71438 -6.82625,0.82021 -1.66688,0.0794 -3.43958,0.0265 -4.868333,-0.92604 -1.031875,-0.55563 -1.534584,-1.66688 -1.931459,-2.72521 0,-0.13229 -0.05292,-0.42333 -0.07937,-0.55562 0,-5.66209 0,-11.29771 0,-16.95979 z"
       inkscape:connector-curvature="0"
       style="isolation:isolate;fill:#ffffff;stroke-width:0.26458332" />
    <path
       id="path49"
       d="m 116.41667,115.00447 c 5.29166,0 10.58333,0 15.875,0 0,1.7727 0,3.51895 0,5.29166 -3.51896,0 -7.06438,0 -10.58334,0 0,0.87313 0,1.77271 0,2.64583 3.51896,0 7.06438,0 10.58334,0 0,4.41855 0,8.81063 0,13.22917 -5.29167,0 -10.58334,0 -15.875,0 0,-1.77271 0,-3.51896 0,-5.29167 3.51895,0 7.06437,0 10.58333,0 0,-0.87312 0,-1.7727 0,-2.64583 -3.51896,0 -7.06438,0 -10.58333,0 0,-4.41854 0,-8.81062 0,-13.22916 z"
       inkscape:connector-curvature="0"
       style="isolation:isolate;fill:#ffffff;stroke-width:0.26458332" />
    <path
       id="path51"
       d="m 134.9375,115.00447 c 5.29167,0 10.58333,0 15.875,0 0,1.7727 0,3.51895 0,5.29166 -1.77271,0 -3.51896,0 -5.29167,0 0,1.77271 0,3.51896 0,5.29167 0,3.51896 0,7.06437 0,10.58333 -1.77271,0 -3.51896,0 -5.29166,0 0,-3.51896 0,-7.06437 0,-10.58333 0,-1.77271 0,-3.51896 0,-5.29167 -1.77271,0 -3.51896,0 -5.29167,0 0,-1.77271 0,-3.51896 0,-5.29166 z"
       inkscape:connector-curvature="0"
       style="isolation:isolate;fill:#ffffff;stroke-width:0.26458332" />
    <path
       id="path53"
       d="m 153.45833,115.00447 c 5.29167,0 10.58334,0 15.875,0 0,4.41854 0,8.81062 0,13.22916 -1.71979,0 -3.41312,0 -5.13291,0 1.69333,1.71979 3.38666,3.43958 5.13291,5.10646 0,0.9525 0,1.87854 0,2.83104 -1.29646,0 -2.56646,0 -3.86291,0 -2.2225,-2.24896 -4.445,-4.49792 -6.72042,-6.72042 0,1.74625 0,3.51896 0,5.29167 0,0.47625 0,0.9525 0,1.42875 -1.77271,0 -3.51896,0 -5.29167,0 0,-7.06437 0,-14.10229 0,-21.16666 z m 5.29167,5.29166 c 0,1.77271 0,3.51896 0,5.29167 1.77271,0 3.51896,0 5.29167,0 0,-1.77271 0,-3.51896 0,-5.29167 -1.77271,0 -3.51896,0 -5.29167,0 z"
       inkscape:connector-curvature="0"
       style="isolation:isolate;fill:#ffffff;stroke-width:0.26458332" />
    <path
       id="path55"
       d="m 171.97917,115.00447 c 1.7727,0 3.51895,0 5.29166,0 0,1.82562 0,3.62479 0,5.45041 0.87313,0.84667 1.74625,1.69334 2.56646,2.56646 1.00542,-0.74083 1.79917,-1.74625 2.72521,-2.56646 0,-1.82562 0,-3.62479 0,-5.45041 1.77271,0 3.51896,0 5.29167,0 0,2.69875 0.0264,5.42395 0,8.1227 -1.79917,1.69334 -3.51896,3.4925 -5.29167,5.23875 0,1.74625 0,3.4925 0,5.23875 0,0.84667 0,1.71979 0,2.56646 -1.77271,0 -3.51896,0 -5.29167,0 0,-0.84667 0,-1.71979 0,-2.56646 0,-1.74625 0,-3.4925 0,-5.26521 -1.77271,-1.71979 -3.46604,-3.51895 -5.26521,-5.21229 -0.0529,-2.69875 -0.0264,-5.3975 -0.0264,-8.1227 z"
       inkscape:connector-curvature="0"
       style="isolation:isolate;fill:#ffffff;stroke-width:0.26458332" />
    <path
       id="path57"
       d="m 11.006667,126.11696 c 2.487083,-2.51354 4.974166,-5.02708 7.514166,-7.4877 0,1.40229 0,2.80458 0,4.20687 -1.825625,1.77271 -3.624791,3.59833 -5.423958,5.3975 -0.714375,-0.68792 -1.402292,-1.40229 -2.090208,-2.11667 z"
       inkscape:connector-curvature="0"
       style="isolation:isolate;fill:#d4816b;stroke-width:0.26458332" />
    <path
       id="path59"
       d="m 195.79167,118.62926 c 2.54,2.46062 5.02708,4.97416 7.51416,7.4877 -0.68791,0.71438 -1.40229,1.42875 -2.09021,2.11667 -1.79916,-1.79917 -3.59833,-3.62479 -5.42395,-5.3975 0,-1.40229 0,-2.80458 0,-4.20687 z"
       inkscape:connector-curvature="0"
       style="isolation:isolate;fill:#d4816b;stroke-width:0.26458332" />
    <path
       id="path75"
       d="m 2.6458338,128.94801 c 2.54,2.46062 5.027083,4.97416 7.5141662,7.4877 2.778125,0.0265 5.582708,0 8.360833,0 0,1.66688 0,3.36021 0,5.02709 -2.513541,0 -5.053541,0 -7.567083,0 -2.7516662,-2.77813 -5.5033332,-5.55625 -8.3079162,-8.30792 0,-1.40229 0,-2.80458 0,-4.20687 z"
       inkscape:connector-curvature="0"
       style="isolation:isolate;fill:#d4816b;stroke-width:0.26458332" />
    <path
       id="path77"
       d="m 203.09417,137.49405 c 2.8575,-2.8575 5.68854,-5.74146 8.5725,-8.54604 0,1.40229 0,2.80458 0,4.20687 -2.77813,2.75167 -5.55625,5.50333 -8.30792,8.30792 -2.51354,0 -5.05354,0 -7.56708,0 0,-1.32292 0,-2.64584 0,-3.96875 2.43416,0 4.86833,0.0265 7.3025,0 z"
       inkscape:connector-curvature="0"
       style="isolation:isolate;fill:#d4816b;stroke-width:0.26458332" />
    <path
       id="path91"
       d="m 84.666667,118.97322 c 1.455208,0 2.936875,0.0264 4.392083,0 0.47625,0.26458 0.926042,0.71437 0.899583,1.32291 0,1.56104 0.07937,3.175 -0.07937,4.73604 -0.05292,-0.10583 -0.105833,-0.37041 -0.15875,-0.50271 -1.640416,-0.47625 -3.360208,-0.1852 -5.053541,-0.26458 0,-1.77271 0,-3.51896 0,-5.29166 z"
       inkscape:connector-curvature="0"
       style="isolation:isolate;fill:#9a9a9a;stroke-width:0.26458332" />
    <path
       id="path93"
       d="m 121.70833,120.29613 c 3.51896,0 7.06438,0 10.58334,0 0,0.87313 0,1.77271 0,2.64583 -3.51896,0 -7.06438,0 -10.58334,0 0,-0.87312 0,-1.7727 0,-2.64583 z"
       inkscape:connector-curvature="0"
       style="isolation:isolate;fill:#9a9a9a;stroke-width:0.26458332" />
    <path
       id="path95"
       d="m 134.9375,120.29613 c 1.77271,0 3.51896,0 5.29167,0 0,1.77271 0,3.51896 0,5.29167 -1.77271,0 -3.51896,0 -5.29167,0 0,-1.77271 0,-3.51896 0,-5.29167 z"
       inkscape:connector-curvature="0"
       style="isolation:isolate;fill:#9a9a9a;stroke-width:0.26458332" />
    <path
       id="path97"
       d="m 145.52083,120.29613 c 1.77271,0 3.51896,0 5.29167,0 0,1.77271 0,3.51896 0,5.29167 -1.77271,0 -3.51896,0 -5.29167,0 0,-1.77271 0,-3.51896 0,-5.29167 z"
       inkscape:connector-curvature="0"
       style="isolation:isolate;fill:#9a9a9a;stroke-width:0.26458332" />
    <path
       id="path99"
       d="m 158.75,120.29613 c 1.77271,0 3.51896,0 5.29167,0 0,1.77271 0,3.51896 0,5.29167 -1.77271,0 -3.51896,0 -5.29167,0 0,-1.77271 0,-3.51896 0,-5.29167 z"
       inkscape:connector-curvature="0"
       style="isolation:isolate;fill:#9a9a9a;stroke-width:0.26458332" />
    <path
       id="path101"
       d="m 172.00562,123.12717 c 1.79917,1.69334 3.4925,3.4925 5.26521,5.21229 0,1.77271 0,3.51896 0,5.26521 -1.82562,-1.69333 -3.51896,-3.4925 -5.29166,-5.21229 0,-1.74625 0,-3.4925 0.0264,-5.26521 z"
       inkscape:connector-curvature="0"
       style="isolation:isolate;fill:#9a9a9a;stroke-width:0.26458332" />
    <path
       id="path103"
       d="m 182.5625,128.36592 c 1.77271,-1.74625 3.4925,-3.54541 5.29167,-5.23875 0,1.74625 0,3.51896 0,5.26521 -1.79917,1.71979 -3.46605,3.51896 -5.29167,5.21229 0,-1.74625 0,-3.4925 0,-5.23875 z"
       inkscape:connector-curvature="0"
       style="isolation:isolate;fill:#9a9a9a;stroke-width:0.26458332" />
    <path
       id="path105"
       d="m 31.75,124.15905 c 1.772708,1.71979 3.518958,3.51896 5.291667,5.23875 1.799166,-1.71979 3.4925,-3.51896 5.291666,-5.23875 0,1.40229 0,2.80458 0,4.23333 -1.799166,1.69333 -3.439583,3.54542 -5.291666,5.18583 -1.825625,-1.64041 -3.4925,-3.4925 -5.291667,-5.18583 0,-1.42875 0,-2.83104 0,-4.23333 z"
       inkscape:connector-curvature="0"
       style="isolation:isolate;fill:#9a9a9a;stroke-width:0.26458332" />
    <path
       id="path107"
       d="m 63.526458,124.37071 c 2.566459,3.9423 5.08,7.91105 7.725834,11.80042 1.825625,0 3.65125,0 5.476875,0 0,1.77271 0,3.51896 0,5.29167 -1.825625,0 -3.65125,0 -5.476875,0 -1.693334,-2.16959 -2.936875,-4.65667 -4.630209,-6.85271 C 65.7225,132.96967 64.61125,131.46155 63.5,129.92696 c 0,-1.85208 -0.02646,-3.70416 0.02646,-5.55625 z"
       inkscape:connector-curvature="0"
       style="isolation:isolate;fill:#9a9a9a;stroke-width:0.26458332" />
    <path
       id="path109"
       d="m 116.41667,128.23363 c 3.51895,0 7.06437,0 10.58333,0 0,0.87313 0,1.77271 0,2.64583 -3.51896,0 -7.06438,0 -10.58333,0 0,-0.87312 0,-1.7727 0,-2.64583 z"
       inkscape:connector-curvature="0"
       style="isolation:isolate;fill:#9a9a9a;stroke-width:0.26458332" />
    <path
       id="path111"
       d="m 164.20042,128.23363 c 1.71979,0 3.41312,0 5.13291,0 0,1.69333 0,3.41313 0,5.10646 -1.74625,-1.66688 -3.43958,-3.38667 -5.13291,-5.10646 z"
       inkscape:connector-curvature="0"
       style="isolation:isolate;fill:#9a9a9a;stroke-width:0.26458332" />
    <path
       id="path113"
       d="m 158.75,129.45071 c 2.27542,2.2225 4.49792,4.47146 6.72042,6.72042 1.29645,0 2.56645,0 3.86291,0 0,1.77271 0,3.51896 0,5.29167 -1.29646,0 -2.56646,0 -3.86291,0 -2.2225,-2.27542 -4.47146,-4.49792 -6.72042,-6.72042 0,-1.77271 0,-3.54542 0,-5.29167 z"
       inkscape:connector-curvature="0"
       style="isolation:isolate;fill:#9a9a9a;stroke-width:0.26458332" />
    <path
       id="path115"
       d="m 93.583125,135.03342 c 0.820208,-0.60854 1.217083,-1.5875 1.5875,-2.48708 0.132292,1.29646 0.07937,2.59292 0.07937,3.88937 0.07937,1.77271 -0.846667,3.59834 -2.487083,4.41855 -0.846667,0.26458 -1.666875,0.635 -2.54,0.60854 -3.624792,0 -7.223125,0 -10.847917,0 0,-1.77271 0,-3.51896 0,-5.29167 3.518958,0 7.064375,0 10.583333,0 1.296459,0.0265 2.566459,-0.42333 3.624792,-1.13771 z"
       inkscape:connector-curvature="0"
       style="isolation:isolate;fill:#9a9a9a;stroke-width:0.26458332" />
    <path
       id="path117"
       d="m 97.975208,132.51988 c 0.396875,1.05833 0.899584,2.16958 1.931459,2.72521 1.428753,0.9525 3.201453,1.00542 4.868333,0.92604 2.27542,-0.10583 4.7625,0.44979 6.82625,-0.82021 1.11125,-0.55562 1.69333,-1.71979 2.09021,-2.83104 0.13229,1.29646 0.0794,2.61938 0.0794,3.91583 0.0794,1.79917 -0.87312,3.6248 -2.48708,4.41855 -0.84667,0.26458 -1.66688,0.635 -2.54,0.60854 -1.93146,0 -3.86292,0 -5.82083,0 -0.87313,0.0265 -1.69334,-0.34396 -2.54,-0.60854 -1.613962,-0.82021 -2.566462,-2.61938 -2.487087,-4.41855 0,-1.29645 -0.05292,-2.61937 0.07937,-3.91583 z"
       inkscape:connector-curvature="0"
       style="isolation:isolate;fill:#9a9a9a;stroke-width:0.26458332" />
    <path
       id="path119"
       d="m 26.458333,136.17113 c 1.772709,0 3.518959,0 5.291667,0 0,1.77271 0,3.51896 0,5.29167 -1.772708,0 -3.518958,0 -5.291667,0 0,-1.77271 0,-3.51896 0,-5.29167 z"
       inkscape:connector-curvature="0"
       style="isolation:isolate;fill:#9a9a9a;stroke-width:0.26458332" />
    <path
       id="path121"
       d="m 42.333333,136.17113 c 1.772709,0 3.518959,0 5.291667,0 0,1.77271 0,3.51896 0,5.29167 -1.772708,0 -3.518958,0 -5.291667,0 0,-1.77271 0,-3.51896 0,-5.29167 z"
       inkscape:connector-curvature="0"
       style="isolation:isolate;fill:#9a9a9a;stroke-width:0.26458332" />
    <path
       id="path123"
       d="m 50.270833,136.17113 c 1.772709,0 3.518959,0 5.291667,0 0,1.77271 0,3.51896 0,5.29167 -1.772708,0 -3.518958,0 -5.291667,0 0,-1.77271 0,-3.51896 0,-5.29167 z"
       inkscape:connector-curvature="0"
       style="isolation:isolate;fill:#9a9a9a;stroke-width:0.26458332" />
    <path
       id="path125"
       d="m 58.208333,136.17113 c 1.772709,0 3.518959,0 5.291667,0 0,1.77271 0,3.51896 0,5.29167 -1.772708,0 -3.518958,0 -5.291667,0 0,-1.77271 0,-3.51896 0,-5.29167 z"
       inkscape:connector-curvature="0"
       style="isolation:isolate;fill:#9a9a9a;stroke-width:0.26458332" />
    <path
       id="path127"
       d="m 116.41667,136.17113 c 5.29166,0 10.58333,0 15.875,0 0,1.77271 0,3.51896 0,5.29167 -5.29167,0 -10.58334,0 -15.875,0 0,-1.77271 0,-3.51896 0,-5.29167 z"
       inkscape:connector-curvature="0"
       style="isolation:isolate;fill:#9a9a9a;stroke-width:0.26458332" />
    <path
       id="path129"
       d="m 140.22917,136.17113 c 1.7727,0 3.51895,0 5.29166,0 0,1.77271 0,3.51896 0,5.29167 -1.77271,0 -3.51896,0 -5.29166,0 0,-1.77271 0,-3.51896 0,-5.29167 z"
       inkscape:connector-curvature="0"
       style="isolation:isolate;fill:#9a9a9a;stroke-width:0.26458332" />
    <path
       id="path131"
       d="m 153.45833,136.17113 c 1.77271,0 3.51896,0 5.29167,0 0,1.77271 0,3.51896 0,5.29167 -1.77271,0 -3.51896,0 -5.29167,0 0,-1.77271 0,-3.51896 0,-5.29167 z"
       inkscape:connector-curvature="0"
       style="isolation:isolate;fill:#9a9a9a;stroke-width:0.26458332" />
    <path
       id="path133"
       d="m 177.27083,136.17113 c 1.77271,0 3.51896,0 5.29167,0 0,1.77271 0,3.51896 0,5.29167 -1.77271,0 -3.51896,0 -5.29167,0 0,-1.77271 0,-3.51896 0,-5.29167 z"
       inkscape:connector-curvature="0"
       style="isolation:isolate;fill:#9a9a9a;stroke-width:0.26458332" />
  </g>
</svg>
